<?xml version="1.0" encoding="UTF-8"?>
<svg xmlns="http://www.w3.org/2000/svg" version="1.1" xmlns:inkscape="http://www.inkscape.org/namespaces/inkscape" xmlns:sodipodi="http://sodipodi.sourceforge.net/DTD/sodipodi-0.dtd" xmlns:svg="http://www.w3.org/2000/svg" viewBox="0 0 245 318.7">
  <defs>
    <style>
      .cls-1 {
        stroke: #ff0909;
        stroke-width: 0px;
      }

      .cls-1, .cls-2 {
        fill: none;
      }

      .cls-2 {
        stroke: #ff0101;
        stroke-width: 0px;
      }
    </style>
  </defs>
  <!-- Generator: Adobe Illustrator 28.6.0, SVG Export Plug-In . SVG Version: 1.2.0 Build 709)  -->
  <g>
    <g id="svg10" inkscape:version="1.4 (e7c3feb100, 2024-10-09)" sodipodi:docname="sprig_cover--dpad.svg">
      <sodipodi:namedview id="namedview10" bordercolor="#000000" borderopacity="0.25" inkscape:current-layer="g10" inkscape:cx="170.90793" inkscape:cy="176.82485" inkscape:deskcolor="#d1d1d1" inkscape:pagecheckerboard="0" inkscape:pageopacity="0.0" inkscape:showpageshadow="2" inkscape:window-height="1080" inkscape:window-maximized="1" inkscape:window-width="1920" inkscape:window-x="0" inkscape:window-y="0" inkscape:zoom="2.1970894" pagecolor="#ffffff"/>
      <g>
        <path id="path5" class="cls-1" d="M159.4,113c0-3.1-2.5-5.7-5.7-5.7h-21.3c-3.1,0-5.7-2.5-5.7-5.7v-36.9c0-3.1,2.5-5.7,5.7-5.7h21.3c3.1,0,5.7-2.5,5.7-5.7v-24.1c0-3.1,2.5-5.7,5.7-5.7h19.8c3.1,0,5.7,2.5,5.7,5.7h0v24.1c0,3.1,2.5,5.7,5.7,5.7h21.3c3.1,0,5.7,2.5,5.7,5.7v36.9c0,3.1-2.5,5.7-5.7,5.7h-21.3c-3.1,0-5.7,2.5-5.7,5.7h0v24.1c0,3.1-2.5,5.7-5.7,5.7h-19.8c-3.1,0-5.7-2.5-5.7-5.7h0v-24.1Z"/>
        <path id="path6" class="cls-1" d="M212.7,47.8c0-1.7-1.4-3.1-3.1-3.1-1.7,0-3.1,1.4-3.1,3.1,0,1.7,1.4,3.1,3.1,3.1,1.7,0,3.1-1.4,3.1-3.1Z"/>
        <path id="path7" class="cls-1" d="M143.4,47.8c0-1.7-1.4-3.1-3.1-3.1-1.7,0-3.1,1.4-3.1,3.1,0,1.7,1.4,3.1,3.1,3.1,1.7,0,3.1-1.4,3.1-3.1Z"/>
        <path id="path8" class="cls-1" d="M212.7,117c0-1.7-1.4-3.1-3.1-3.1-1.7,0-3.1,1.4-3.1,3.1,0,1.7,1.4,3.1,3.1,3.1,1.7,0,3.1-1.4,3.1-3.1Z"/>
        <path id="path9" class="cls-1" d="M143.4,117c0-1.7-1.4-3.1-3.1-3.1-1.7,0-3.1,1.4-3.1,3.1,0,1.7,1.4,3.1,3.1,3.1,1.7,0,3.1-1.4,3.1-3.1Z"/>
        <path id="path10" class="cls-1" d="M157,156.4c0,1.6,1.3,2.8,2.8,2.8h62.1c8.1,0,14.7-6.6,14.7-14.7V22.3c0-8.1-6.6-14.7-14.7-14.7h-96.1c-1.6,0-2.8,1.3-2.8,2.8v112c0,1.6,1.3,2.8,2.8,2.8h2.8c15.7,0,28.4,12.7,28.4,28.4v2.8Z"/>
      </g>
      <g>
        <path id="path5-0" class="cls-1" d="M82.8,111c0-3.1,2.5-5.7,5.7-5.7h21.3c3.1,0,5.7-2.5,5.7-5.7v-36.9c0-3.1-2.5-5.7-5.7-5.7h-21.3c-3.1,0-5.7-2.5-5.7-5.7v-24.1c0-3.1-2.5-5.7-5.7-5.7h-19.8c-3.1,0-5.7,2.5-5.7,5.7h0v24.1c0,3.1-2.5,5.7-5.7,5.7h-21.3c-3.1,0-5.7,2.5-5.7,5.7v36.9c0,3.1,2.5,5.7,5.7,5.7h21.3c3.1,0,5.7,2.5,5.7,5.7h0v24.1c0,3.1,2.5,5.7,5.7,5.7h19.8c3.1,0,5.7-2.5,5.7-5.7h0v-24.1Z"/>
        <path id="path6-6" class="cls-1" d="M29.6,45.7c0-1.7,1.4-3.1,3.1-3.1,1.7,0,3.1,1.4,3.1,3.1,0,1.7-1.4,3.1-3.1,3.1-1.7,0-3.1-1.4-3.1-3.1Z"/>
        <path id="path7-2" class="cls-1" d="M98.9,45.7c0-1.7,1.4-3.1,3.1-3.1s3.1,1.4,3.1,3.1-1.4,3.1-3.1,3.1-3.1-1.4-3.1-3.1Z"/>
        <path id="path8-6" class="cls-1" d="M29.6,115c0-1.7,1.4-3.1,3.1-3.1,1.7,0,3.1,1.4,3.1,3.1,0,1.7-1.4,3.1-3.1,3.1-1.7,0-3.1-1.4-3.1-3.1Z"/>
        <path id="path9-1" class="cls-1" d="M98.9,115c0-1.7,1.4-3.1,3.1-3.1s3.1,1.4,3.1,3.1-1.4,3.1-3.1,3.1-3.1-1.4-3.1-3.1Z"/>
        <path id="path10-8" class="cls-1" d="M85.2,154.4c0,1.6-1.3,2.8-2.8,2.8H20.3c-8.1,0-14.7-6.6-14.7-14.7V20.3c0-8.1,6.6-14.7,14.7-14.7h96.1c1.6,0,2.8,1.3,2.8,2.8h0v112c0,1.6-1.3,2.8-2.8,2.8h-2.8c-15.7,0-28.4,12.7-28.4,28.4v2.8Z"/>
      </g>
      <g id="g10">
        <path id="path5-2" data-name="path5" class="cls-2" d="M210.7,270.5c-1.7,0-3.1,1.4-3.1,3.1,0,1.7,1.4,3.1,3.1,3.1,1.7,0,3.1-1.4,3.1-3.1,0-1.7-1.4-3.1-3.1-3.1Z"/>
        <path id="path6-2" data-name="path6" class="cls-2" d="M141.7,270.5c-1.7,0-3.1,1.4-3.1,3.1,0,1.7,1.4,3.1,3.1,3.1,1.7,0,3.1-1.4,3.1-3.1,0-1.7-1.4-3.1-3.1-3.1Z"/>
        <path id="path7-2" data-name="path7" class="cls-2" d="M210.7,201.6c-1.7,0-3.1,1.4-3.1,3.1,0,1.7,1.4,3.1,3.1,3.1,1.7,0,3.1-1.4,3.1-3.1,0-1.7-1.4-3.1-3.1-3.1Z"/>
        <path id="path8-2" data-name="path8" class="cls-2" d="M141.7,201.6c-1.7,0-3.1,1.4-3.1,3.1,0,1.7,1.4,3.1,3.1,3.1,1.7,0,3.1-1.4,3.1-3.1,0-1.7-1.4-3.1-3.1-3.1Z"/>
        <path id="path9-2" data-name="path9" class="cls-2" d="M158.4,168.2c0,15.6-12.6,28.2-28.2,28.2h-2.8c-1.6,0-2.8,1.3-2.8,2.8v111.6c0,1.6,1.3,2.8,2.8,2.8h95.8c8.1,0,14.7-6.6,14.7-14.7v-121.7c0-8.1-6.6-14.7-14.7-14.7h-61.9c-1.6,0-2.8,1.3-2.8,2.8v2.8Z"/>
      </g>
      <g>
        <path id="path5-7" class="cls-2" d="M31.6,274.8c0,1.7,1.4,3.1,3.1,3.1,1.7,0,3.1-1.4,3.1-3.1,0-1.7-1.4-3.1-3.1-3.1-1.7,0-3.1,1.4-3.1,3.1Z"/>
        <path id="path6-0" class="cls-2" d="M100.6,274.8c0,1.7,1.4,3.1,3.1,3.1,1.7,0,3.1-1.4,3.1-3.1,0-1.7-1.4-3.1-3.1-3.1-1.7,0-3.1,1.4-3.1,3.1Z"/>
        <path id="path7-9" class="cls-2" d="M31.6,205.9c0,1.7,1.4,3.1,3.1,3.1,1.7,0,3.1-1.4,3.1-3.1,0-1.7-1.4-3.1-3.1-3.1-1.7,0-3.1,1.4-3.1,3.1Z"/>
        <path id="path8-3" class="cls-2" d="M100.6,205.9c0,1.7,1.4,3.1,3.1,3.1,1.7,0,3.1-1.4,3.1-3.1,0-1.7-1.4-3.1-3.1-3.1-1.7,0-3.1,1.4-3.1,3.1Z"/>
        <path id="path9-6" class="cls-2" d="M87,166.6c0-1.6-1.3-2.8-2.8-2.8H22.3c-8.1,0-14.7,6.6-14.7,14.7v121.7c0,8.1,6.6,14.7,14.7,14.7h95.8c1.6,0,2.8-1.3,2.8-2.8v-111.6c0-1.6-1.3-2.8-2.8-2.8h-2.8c-15.6,0-28.2-12.6-28.2-28.2v-2.8Z"/>
      </g>
    </g>
  </g>
</svg>