<?xml version="1.0" standalone="no"?>
 <!DOCTYPE svg PUBLIC "-//W3C//DTD SVG 1.1//EN" 
 "http://www.w3.org/Graphics/SVG/1.1/DTD/svg11.dtd"> 
<svg
  xmlns:svg="http://www.w3.org/2000/svg"
  xmlns="http://www.w3.org/2000/svg"
  xmlns:xlink="http://www.w3.org/1999/xlink"
  version="1.1"
  width="297.002200mm" height="210.007200mm" viewBox="0.000000 0.000000 297.002200 210.007200">
<title>SVG Image created as sprig_console-B_Mask.svg date 2024/12/20 09:20:57 </title>
  <desc>Image generated by PCBNEW </desc>
<g style="fill:#000000; fill-opacity:1.000000;stroke:#000000; stroke-opacity:1.000000;
stroke-linecap:round; stroke-linejoin:round;"
 transform="translate(0 0) scale(1 1)">
<path style="fill:#000000; fill-opacity:1.000000; stroke:none;fill-rule:evenodd;"
d="M 218.351612,115.222177
218.444181,115.222703
218.515181,115.223776
218.567427,115.225538
218.603732,115.228136
218.626910,115.231712
218.639774,115.236411
218.645137,115.242377
218.645314,115.242878
218.650090,115.262900
218.658964,115.305476
218.671224,115.366987
218.686158,115.443816
218.703056,115.532345
218.721204,115.628957
218.722714,115.637044
218.741111,115.732893
218.758725,115.820120
218.774770,115.895155
218.788457,115.954427
218.798998,115.994365
218.805605,116.011399
218.813242,116.016867
218.843991,116.032949
218.892242,116.055092
218.953310,116.081428
219.022511,116.110095
219.095159,116.139226
219.166570,116.166957
219.232059,116.191422
219.286940,116.210758
219.326530,116.223098
219.346144,116.226578
219.346572,116.226479
219.365494,116.216903
219.403135,116.194055
219.456352,116.159977
219.522005,116.116713
219.596953,116.066302
219.678054,116.010789
219.684116,116.006607
219.764263,115.951775
219.837505,115.902486
219.900815,115.860714
219.951166,115.828434
219.985533,115.807618
220.000887,115.800241
220.002336,115.800680
220.019799,115.813668
220.053029,115.842905
220.099476,115.885992
220.156587,115.940532
220.221811,116.004127
220.292595,116.074377
220.300867,116.082662
220.386211,116.168900
220.453006,116.238054
220.502286,116.291273
220.535086,116.329708
220.552440,116.354512
220.555381,116.366834
220.545129,116.382296
220.521691,116.416845
220.487197,116.467364
220.443760,116.530763
220.393494,116.603953
220.338513,116.683843
220.284061,116.763770
220.234981,116.837513
220.193357,116.901803
220.161189,116.953500
220.140474,116.989463
220.133209,117.006554
220.137368,117.025669
220.151126,117.065731
220.172587,117.120662
220.199769,117.186042
220.230689,117.257452
220.263366,117.330472
220.295816,117.400681
220.326057,117.463662
220.352107,117.514993
220.371983,117.550255
220.383704,117.565029
220.400283,117.569644
220.440427,117.578672
220.499802,117.591073
220.574615,117.606074
220.661074,117.622901
220.755386,117.640781
220.842407,117.657384
220.927895,117.674370
221.001354,117.689675
221.059173,117.702525
221.097745,117.712142
221.113461,117.717752
221.115109,117.722410
221.118561,117.750096
221.121847,117.798437
221.124886,117.863179
221.127599,117.940073
221.129904,118.024865
221.131723,118.113305
221.132973,118.201140
221.133576,118.284119
221.133450,118.357990
221.132516,118.418501
221.130693,118.461401
221.127901,118.482438
221.123734,118.489759
221.113483,118.498171
221.094798,118.506543
221.064670,118.515650
221.020089,118.526271
220.958045,118.539183
220.875528,118.555164
220.769529,118.574989
220.683657,118.591262
220.596082,118.608647
220.519770,118.624624
220.458527,118.638369
220.416154,118.649058
220.396455,118.655866
220.394236,118.657827
220.379798,118.680306
220.358602,118.722381
220.332419,118.779635
220.303023,118.847656
220.272187,118.922026
220.241681,118.998332
220.213280,119.072158
220.188756,119.139090
220.169880,119.194712
220.158427,119.234609
220.156168,119.254366
220.161370,119.264046
220.180262,119.294423
220.210676,119.341301
220.250426,119.401355
220.297325,119.471263
220.349187,119.547701
220.385214,119.600634
220.434802,119.673897
220.478385,119.738762
220.513663,119.791786
220.538334,119.829522
220.550097,119.848525
220.552412,119.853757
220.553401,119.864226
220.548623,119.877858
220.536165,119.896895
220.514114,119.923585
220.480558,119.960171
220.433584,120.008897
220.371280,120.072010
220.291733,120.151752
220.275611,120.167855
220.206218,120.236711
220.143326,120.298401
220.089420,120.350538
220.046986,120.390734
220.018510,120.416603
220.006476,120.425757
219.993674,120.418951
219.961575,120.398765
219.913297,120.367186
219.851860,120.326210
219.780285,120.277837
219.701589,120.224063
219.625981,120.172490
219.553507,120.123791
219.490814,120.082426
219.440977,120.050397
219.407070,120.029710
219.392170,120.022369
219.378990,120.026465
219.345874,120.040957
219.299182,120.063452
219.244453,120.091363
219.198557,120.114355
219.149515,120.136449
219.112742,120.150169
219.093874,120.153200
219.092627,120.152070
219.081615,120.132732
219.061749,120.091468
219.034073,120.030659
218.999627,119.952686
218.959457,119.859928
218.914603,119.754766
218.866110,119.639580
218.815020,119.516750
218.554815,118.887456
218.594153,118.857161
218.664401,118.802731
218.731183,118.749740
218.782808,118.706654
218.822826,118.670212
218.854789,118.637150
218.882247,118.604206
218.908752,118.568117
218.960793,118.484331
219.008075,118.374190
219.035040,118.255476
219.043603,118.121853
219.043461,118.104047
219.040094,118.028456
219.033002,117.958206
219.023193,117.904045
218.990896,117.805817
218.927875,117.683553
218.845331,117.575449
218.746149,117.483313
218.633215,117.408957
218.509411,117.354191
218.377624,117.320827
218.240736,117.310674
218.101633,117.325543
218.014590,117.346859
217.893612,117.393399
217.785600,117.458965
217.684309,117.546867
217.642150,117.592103
217.557016,117.708709
217.495859,117.833085
217.458380,117.962722
217.444282,118.095112
217.453267,118.227748
217.485037,118.358120
217.539293,118.483720
217.615739,118.602041
217.714075,118.710574
217.834003,118.806810
217.846463,118.815508
217.888236,118.847849
217.916910,118.875256
217.927563,118.893182
217.924703,118.903768
217.912227,118.938451
217.890436,118.995165
217.859969,119.072332
217.821467,119.168374
217.775569,119.281713
217.722915,119.410770
217.664144,119.553968
217.599897,119.709728
217.530813,119.876473
217.457532,120.052623
217.432715,120.106916
217.410097,120.144074
217.393028,120.156832
217.380668,120.153626
217.347432,120.139788
217.300971,120.117530
217.247247,120.089600
217.208111,120.068986
217.159632,120.044911
217.122985,120.028460
217.103999,120.022369
217.099196,120.023938
217.074212,120.037565
217.032180,120.063387
216.976536,120.099210
216.910716,120.142842
216.838158,120.192087
216.810826,120.210836
216.736617,120.261667
216.668244,120.308397
216.609789,120.348243
216.565333,120.378420
216.538957,120.396146
216.487064,120.430487
216.212289,120.155958
216.195956,120.139613
216.126951,120.069951
216.065130,120.006583
216.012885,119.952027
215.972607,119.908804
215.946687,119.879432
215.937515,119.866433
215.944308,119.852667
215.964487,119.819607
215.996065,119.770459
216.037044,119.708287
216.085425,119.636156
216.139209,119.557132
216.190664,119.481368
216.239397,119.408206
216.280795,119.344580
216.312850,119.293625
216.333555,119.258473
216.340903,119.242259
216.339765,119.236501
216.330584,119.207927
216.313392,119.160151
216.289627,119.097029
216.260729,119.022418
216.228138,118.940173
216.192685,118.853055
216.155454,118.765861
216.126175,118.703086
216.104558,118.664118
216.090314,118.648341
216.076269,118.644478
216.038014,118.635976
215.980298,118.624087
215.906992,118.609588
215.821968,118.593254
215.729098,118.575864
215.652674,118.561456
215.566945,118.544586
215.492671,118.529193
215.433607,118.516085
215.393509,118.506068
215.376133,118.499952
215.373032,118.495284
215.368440,118.476438
215.364901,118.442108
215.362316,118.390014
215.360590,118.317875
215.359626,118.223411
215.359326,118.104341
215.359326,117.722480
215.389580,117.709773
215.406127,117.705082
215.446776,117.695904
215.506664,117.683493
215.581887,117.668636
215.668538,117.652118
215.762714,117.634724
215.798251,117.628218
215.912635,117.606461
216.001683,117.588024
216.066426,117.572666
216.107896,117.560150
216.127124,117.550235
216.129162,117.547687
216.143062,117.523341
216.164872,117.479254
216.192685,117.419495
216.224596,117.348136
216.258699,117.269245
216.288396,117.198987
216.317830,117.127617
216.338308,117.074757
216.350943,117.036994
216.356846,117.010915
216.357131,116.993105
216.352910,116.980151
216.343157,116.964199
216.319717,116.928262
216.285196,116.876433
216.241810,116.812014
216.191772,116.738309
216.137297,116.658619
216.087457,116.585386
216.038850,116.512750
215.997538,116.449724
215.965535,116.399425
215.944856,116.364970
215.937515,116.349478
215.942390,116.340588
215.963851,116.314420
215.999680,116.274883
216.046880,116.224958
216.102457,116.167628
216.163415,116.105875
216.226759,116.042681
216.289494,115.981027
216.348624,115.923896
216.401154,115.874270
216.444089,115.835131
216.474433,115.809460
216.489192,115.800241
216.504653,115.807196
216.539273,115.827630
216.589767,115.859538
216.653018,115.900908
216.725904,115.949731
216.805305,116.003995
216.880648,116.055645
216.955660,116.106369
217.021826,116.150397
217.075844,116.185553
217.114414,116.209665
217.134233,116.220559
217.139785,116.222238
217.157256,116.223231
217.182601,116.218811
217.219171,116.207898
217.270314,116.189414
217.339382,116.162279
217.429726,116.125416
217.485542,116.102135
217.576054,116.062749
217.642547,116.031255
217.684536,116.007890
217.701533,115.992892
217.705617,115.977413
217.714062,115.938070
217.725787,115.879376
217.740047,115.805157
217.756095,115.719236
217.773187,115.625439
217.787922,115.544658
217.804439,115.456651
217.819415,115.379506
217.832073,115.317128
217.841638,115.273426
217.847333,115.252305
217.859755,115.222051
218.248546,115.222051
Z" /> 
</g>
<g style="fill:none; 
stroke:#000000; stroke-width:2.500000; stroke-opacity:1; 
stroke-linecap:round; stroke-linejoin:round;">
<path d="M114.300000 104.390000
L114.300000 103.890000
" />
<path d="M114.300000 91.890000
L114.300000 91.390000
" />
<path d="M119.300000 104.390000
L119.300000 103.890000
" />
<path d="M119.300000 91.890000
L119.300000 91.390000
" />
<path style="fill:#000000; fill-opacity:1.000000; stroke:none;fill-rule:evenodd;"
d="M 179.870000,89.065000
178.270000,89.065000
178.270000,87.465000
179.870000,87.465000
Z" /> 
</g>
<g style="fill:#000000; fill-opacity:1.000000; stroke:none;">
<circle cx="179.070000" cy="80.645000" r="0.800000" /> 
</g>
<g style="fill:none; 
stroke:#000000; stroke-width:2.500000; stroke-opacity:1; 
stroke-linecap:round; stroke-linejoin:round;">
<path d="M210.820000 104.390000
L210.820000 103.890000
" />
<path d="M210.820000 91.890000
L210.820000 91.390000
" />
<path d="M215.820000 104.390000
L215.820000 103.890000
" />
<path d="M215.820000 91.890000
L215.820000 91.390000
" />
<path d="M101.600000 117.090000
L101.600000 116.590000
" />
<path d="M101.600000 104.590000
L101.600000 104.090000
" />
<path d="M106.600000 117.090000
L106.600000 116.590000
" />
<path d="M106.600000 104.590000
L106.600000 104.090000
" />
</g>
<g style="fill:#000000; fill-opacity:1.000000; stroke:none;">
<circle cx="212.675000" cy="110.388400" r="1.100000" /> 
</g>
<g style="fill:#000000; fill-opacity:1.000000; stroke:none;">
<circle cx="132.080000" cy="114.975000" r="0.800000" /> 
</g>
<g style="fill:#000000; fill-opacity:1.000000; stroke:none;">
<circle cx="132.080000" cy="119.975000" r="0.800000" /> 
</g>
<g style="fill:#000000; fill-opacity:1.000000; stroke:none;">
<circle cx="92.125000" cy="110.388400" r="1.100000" /> 
</g>
<g style="fill:#000000; fill-opacity:1.000000; stroke:none;">
<circle cx="188.291000" cy="110.388400" r="1.100000" /> 
</g>
<g style="fill:#000000; fill-opacity:1.000000; stroke:none;">
<circle cx="200.660000" cy="74.295000" r="0.700000" /> 
</g>
<g style="fill:#000000; fill-opacity:1.000000; stroke:none;">
<circle cx="208.280000" cy="74.295000" r="0.700000" /> 
<circle cx="116.509000" cy="110.388400" r="1.100000" /> 
</g>
<g style="fill:#000000; fill-opacity:1.000000; stroke:none;">
<circle cx="188.291000" cy="86.004400" r="1.100000" /> 
</g>
<g style="fill:none; 
stroke:#000000; stroke-width:2.500000; stroke-opacity:1; 
stroke-linecap:round; stroke-linejoin:round;">
<path d="M198.120000 91.690000
L198.120000 91.190000
" />
<path d="M198.120000 79.190000
L198.120000 78.690000
" />
<path d="M203.120000 91.690000
L203.120000 91.190000
" />
<path d="M203.120000 79.190000
L203.120000 78.690000
" />
</g>
<g style="fill:#000000; fill-opacity:1.000000; stroke:none;">
<circle cx="125.660000" cy="105.301051" r="0.850000" /> 
</g>
<g style="fill:#000000; fill-opacity:1.000000; stroke:none;">
<circle cx="179.000000" cy="97.681051" r="0.850000" /> 
</g>
<g style="fill:#000000; fill-opacity:1.000000; stroke:none;">
<circle cx="125.660000" cy="102.761051" r="0.850000" /> 
</g>
<g style="fill:#000000; fill-opacity:1.000000; stroke:none;">
<circle cx="125.660000" cy="100.221051" r="0.850000" /> 
</g>
<g style="fill:#000000; fill-opacity:1.000000; stroke:none;">
<circle cx="125.660000" cy="92.601051" r="0.850000" /> 
<path style="fill:#000000; fill-opacity:1.000000; stroke:none;fill-rule:evenodd;"
d="M 178.150000,93.451051
178.150000,91.751051
179.850000,91.751051
179.850000,93.451051
Z" /> 
</g>
<g style="fill:#000000; fill-opacity:1.000000; stroke:none;">
<circle cx="125.660000" cy="97.681051" r="0.850000" /> 
</g>
<g style="fill:#000000; fill-opacity:1.000000; stroke:none;">
<circle cx="125.660000" cy="95.141051" r="0.850000" /> 
<path style="fill:#000000; fill-opacity:1.000000; stroke:none;fill-rule:evenodd;"
d="M 124.810000,88.371051
124.810000,86.671051
126.510000,86.671051
126.510000,88.371051
Z" /> 
</g>
<g style="fill:#000000; fill-opacity:1.000000; stroke:none;">
<circle cx="125.660000" cy="90.061051" r="0.850000" /> 
</g>
<g style="fill:#000000; fill-opacity:1.000000; stroke:none;">
<circle cx="179.000000" cy="95.141051" r="0.850000" /> 
</g>
<g style="fill:#000000; fill-opacity:1.000000; stroke:none;">
<circle cx="179.000000" cy="100.221051" r="0.850000" /> 
</g>
<g style="fill:#000000; fill-opacity:1.000000; stroke:none;">
<circle cx="127.000000" cy="120.015000" r="0.700000" /> 
</g>
<g style="fill:#000000; fill-opacity:1.000000; stroke:none;">
<circle cx="127.000000" cy="112.395000" r="0.700000" /> 
</g>
<g style="fill:none; 
stroke:#000000; stroke-width:2.500000; stroke-opacity:1; 
stroke-linecap:round; stroke-linejoin:round;">
<path d="M198.120000 117.040000
L198.120000 116.540000
" />
<path d="M198.120000 104.540000
L198.120000 104.040000
" />
<path d="M203.120000 117.040000
L203.120000 116.540000
" />
<path d="M203.120000 104.540000
L203.120000 104.040000
" />
</g>
<g style="fill:#000000; fill-opacity:1.000000; stroke:none;">
<circle cx="212.675000" cy="86.004400" r="1.100000" /> 
</g>
<g style="fill:#000000; fill-opacity:1.000000; stroke:none;">
<circle cx="92.125000" cy="86.004400" r="1.100000" /> 
</g>
<g style="fill:none; 
stroke:#000000; stroke-width:2.500000; stroke-opacity:1; 
stroke-linecap:round; stroke-linejoin:round;">
<path d="M101.600000 91.690000
L101.600000 91.190000
" />
<path d="M101.600000 79.190000
L101.600000 78.690000
" />
<path d="M106.600000 91.690000
L106.600000 91.190000
" />
<path d="M106.600000 79.190000
L106.600000 78.690000
" />
<path d="M88.900000 104.390000
L88.900000 103.890000
" />
<path d="M88.900000 91.890000
L88.900000 91.390000
" />
<path d="M93.900000 104.390000
L93.900000 103.890000
" />
<path d="M93.900000 91.890000
L93.900000 91.390000
" />
</g>
<g style="fill:#000000; fill-opacity:1.000000; stroke:none;">
<circle cx="116.509000" cy="86.004400" r="1.100000" /> 
</g>
<g style="fill:#000000; fill-opacity:1.000000; stroke:none;">
<circle cx="129.540000" cy="120.015000" r="0.700000" /> 
</g>
<g style="fill:#000000; fill-opacity:1.000000; stroke:none;">
<circle cx="129.540000" cy="112.395000" r="0.700000" /> 
<circle cx="89.744800" cy="74.269600" r="0.825500" /> 
<path style="fill:#000000; fill-opacity:1.000000; stroke:none;fill-rule:evenodd;"
d="M 91.459300,75.095100
91.459300,73.444100
93.110300,73.444100
93.110300,75.095100
Z" /> 
</g>
<g style="fill:#000000; fill-opacity:1.000000; stroke:none;">
<circle cx="179.070000" cy="77.470000" r="0.800000" /> 
</g>
<g style="fill:#000000; fill-opacity:1.000000; stroke:none;">
<circle cx="179.070000" cy="72.470000" r="0.800000" /> 
</g>
<g style="fill:#000000; fill-opacity:1.000000; stroke:none;">
<circle cx="182.118000" cy="63.500000" r="0.800000" /> 
<path style="fill:#000000; fill-opacity:1.000000; stroke:none;fill-rule:evenodd;"
d="M 183.908000,64.250000
183.908000,62.750000
185.408000,62.750000
185.408000,64.250000
Z" /> 
</g>
<g style="fill:#000000; fill-opacity:1.000000; stroke:none;">
<circle cx="187.198000" cy="63.500000" r="0.800000" /> 
</g>
<g style="fill:#000000; fill-opacity:1.000000; stroke:none;">
<circle cx="212.090000" cy="74.295000" r="0.825500" /> 
<path style="fill:#000000; fill-opacity:1.000000; stroke:none;fill-rule:evenodd;"
d="M 213.804500,75.120500
213.804500,73.469500
215.455500,73.469500
215.455500,75.120500
Z" /> 
</g>
<g style="fill:none; 
stroke:#000000; stroke-width:2.500000; stroke-opacity:1; 
stroke-linecap:round; stroke-linejoin:round;">
<path d="M185.420000 104.340000
L185.420000 103.840000
" />
<path d="M185.420000 91.840000
L185.420000 91.340000
" />
<path d="M190.420000 104.340000
L190.420000 103.840000
" />
<path d="M190.420000 91.840000
L190.420000 91.340000
" />
</g>
<g style="fill:#000000; fill-opacity:1.000000; stroke:none;">
<circle cx="104.140000" cy="74.295000" r="0.700000" /> 
</g>
<g style="fill:#000000; fill-opacity:1.000000; stroke:none;">
<circle cx="96.520000" cy="74.295000" r="0.700000" /> 
<circle cx="121.793000" cy="72.081000" r="5.450000" /> 
</g>
<g style="fill:#000000; fill-opacity:1.000000; stroke:none;">
<circle cx="115.650000" cy="65.234000" r="1.500000" /> 
</g>
<g style="fill:#000000; fill-opacity:1.000000; stroke:none;">
<circle cx="115.650000" cy="78.928000" r="1.500000" /> 
</g>
<g style="fill:#000000; fill-opacity:1.000000; stroke:none;">
<circle cx="130.495000" cy="64.474000" r="0.850000" /> 
</g>
<g style="fill:#000000; fill-opacity:1.000000; stroke:none;">
<circle cx="130.495000" cy="67.014000" r="0.850000" /> 
</g>
<g style="fill:#000000; fill-opacity:1.000000; stroke:none;">
<circle cx="130.495000" cy="69.554000" r="0.850000" /> 
</g>
<g style="fill:#000000; fill-opacity:1.000000; stroke:none;">
<circle cx="130.495000" cy="72.094000" r="0.850000" /> 
</g>
<g style="fill:#000000; fill-opacity:1.000000; stroke:none;">
<circle cx="130.495000" cy="74.634000" r="0.850000" /> 
</g>
<g style="fill:#000000; fill-opacity:1.000000; stroke:none;">
<circle cx="130.495000" cy="77.174000" r="0.850000" /> 
</g>
<g style="fill:#000000; fill-opacity:1.000000; stroke:none;">
<circle cx="130.495000" cy="79.714000" r="0.850000" /> 
<path style="fill:#000000; fill-opacity:1.000000; stroke:none;fill-rule:evenodd;"
d="M 188.434000,71.540000
188.434000,73.240000
186.734000,73.240000
186.734000,71.540000
Z" /> 
</g>
<g style="fill:#000000; fill-opacity:1.000000; stroke:none;">
<circle cx="185.044000" cy="72.390000" r="0.850000" /> 
<circle cx="187.584000" cy="74.930000" r="0.850000" /> 
<circle cx="185.044000" cy="74.930000" r="0.850000" /> 
<circle cx="187.584000" cy="77.470000" r="0.850000" /> 
<circle cx="185.044000" cy="77.470000" r="0.850000" /> 
<circle cx="150.000000" cy="118.000000" r="0.850000" /> 
<circle cx="150.000000" cy="68.140000" r="0.850000" /> 
<circle cx="139.200000" cy="68.140000" r="0.850000" /> 
<circle cx="139.200000" cy="118.000000" r="0.850000" /> 
<circle cx="176.022000" cy="62.230000" r="0.850000" /> 
<circle cx="176.022000" cy="64.770000" r="0.850000" /> 
<path style="fill:#000000; fill-opacity:1.000000; stroke:none;fill-rule:evenodd;"
d="M 176.872000,66.460000
176.872000,68.160000
175.172000,68.160000
175.172000,66.460000
Z" /> 
<circle cx="176.022000" cy="69.850000" r="0.850000" /> 
<circle cx="176.022000" cy="72.390000" r="0.850000" /> 
<circle cx="176.022000" cy="74.930000" r="0.850000" /> 
<circle cx="176.022000" cy="77.470000" r="0.850000" /> 
<path style="fill:#000000; fill-opacity:1.000000; stroke:none;fill-rule:evenodd;"
d="M 176.872000,79.160000
176.872000,80.860000
175.172000,80.860000
175.172000,79.160000
Z" /> 
<circle cx="176.022000" cy="82.550000" r="0.850000" /> 
<circle cx="176.022000" cy="85.090000" r="0.850000" /> 
<circle cx="176.022000" cy="87.630000" r="0.850000" /> 
<circle cx="176.022000" cy="90.170000" r="0.850000" /> 
<path style="fill:#000000; fill-opacity:1.000000; stroke:none;fill-rule:evenodd;"
d="M 176.872000,91.860000
176.872000,93.560000
175.172000,93.560000
175.172000,91.860000
Z" /> 
<circle cx="176.022000" cy="95.250000" r="0.850000" /> 
<circle cx="176.022000" cy="97.790000" r="0.850000" /> 
<circle cx="176.022000" cy="100.330000" r="0.850000" /> 
<circle cx="176.022000" cy="102.870000" r="0.850000" /> 
<path style="fill:#000000; fill-opacity:1.000000; stroke:none;fill-rule:evenodd;"
d="M 176.872000,104.560000
176.872000,106.260000
175.172000,106.260000
175.172000,104.560000
Z" /> 
<circle cx="176.022000" cy="107.950000" r="0.850000" /> 
<circle cx="176.022000" cy="110.490000" r="0.850000" /> 
<circle cx="158.242000" cy="110.490000" r="0.850000" /> 
<circle cx="158.242000" cy="107.950000" r="0.850000" /> 
<path style="fill:#000000; fill-opacity:1.000000; stroke:none;fill-rule:evenodd;"
d="M 159.092000,104.560000
159.092000,106.260000
157.392000,106.260000
157.392000,104.560000
Z" /> 
<circle cx="158.242000" cy="102.870000" r="0.850000" /> 
<circle cx="158.242000" cy="100.330000" r="0.850000" /> 
<circle cx="158.242000" cy="97.790000" r="0.850000" /> 
<circle cx="158.242000" cy="95.250000" r="0.850000" /> 
<path style="fill:#000000; fill-opacity:1.000000; stroke:none;fill-rule:evenodd;"
d="M 159.092000,91.860000
159.092000,93.560000
157.392000,93.560000
157.392000,91.860000
Z" /> 
<circle cx="158.242000" cy="90.170000" r="0.850000" /> 
<circle cx="158.242000" cy="87.630000" r="0.850000" /> 
<circle cx="158.242000" cy="85.090000" r="0.850000" /> 
<circle cx="158.242000" cy="82.550000" r="0.850000" /> 
<path style="fill:#000000; fill-opacity:1.000000; stroke:none;fill-rule:evenodd;"
d="M 159.092000,79.160000
159.092000,80.860000
157.392000,80.860000
157.392000,79.160000
Z" /> 
<circle cx="158.242000" cy="77.470000" r="0.850000" /> 
<circle cx="158.242000" cy="74.930000" r="0.850000" /> 
<circle cx="158.242000" cy="72.390000" r="0.850000" /> 
<circle cx="158.242000" cy="69.850000" r="0.850000" /> 
<path style="fill:#000000; fill-opacity:1.000000; stroke:none;fill-rule:evenodd;"
d="M 159.092000,66.460000
159.092000,68.160000
157.392000,68.160000
157.392000,66.460000
Z" /> 
<circle cx="158.242000" cy="64.770000" r="0.850000" /> 
<circle cx="158.242000" cy="62.230000" r="0.850000" /> 
</g>
<g style="fill:none; 
stroke:#000000; stroke-width:0.100000; stroke-opacity:1; 
stroke-linecap:round; stroke-linejoin:round;">
<path d="M196.850002 71.120002
L217.170000 71.120000
" />
<path d="M118.110000 59.690000
L152.400000 59.690000
" />
<path d="M186.690000 59.690000
L152.400000 59.690000
" />
<path d="M82.550000 119.380000 A5.080000 5.080000 0.0 0 0 87.630000 124.460000" />
<path d="M87.630000 71.120000
L107.950002 71.120002
" />
<path d="M152.400000 124.460000
L217.170000 124.460000
" />
<path d="M222.250000 119.380000
L222.250000 76.200000
" />
<path d="M191.770000 64.770000
L191.770002 66.040002
" />
<path d="M217.170000 124.460000 A5.080000 5.080000 0.0 0 0 222.250000 119.380000" />
<path d="M113.030000 64.770000
L113.030002 66.040002
" />
<path d="M107.950002 71.120002 A5.080002 5.080002 0.0 0 0 113.030002 66.040002" />
<path d="M191.770000 64.770000 A5.080000 5.080000 0.0 0 0 186.690000 59.690000" />
<path d="M191.769998 66.040002 A5.080002 5.080002 0.0 0 0 196.850002 71.120002" />
<path d="M222.250000 76.200000 A5.080000 5.080000 0.0 0 0 217.170000 71.120000" />
<path d="M82.550000 76.200000
L82.550000 119.380000
" />
<path d="M87.630000 71.120000 A5.080000 5.080000 0.0 0 0 82.550000 76.200000" />
<path d="M118.110000 59.690000 A5.080000 5.080000 0.0 0 0 113.030000 64.770000" />
<path d="M152.400000 124.460000
L87.630000 124.460000
" />
</g>
<g style="fill:#000000; fill-opacity:1.000000; stroke:none;">
<circle cx="114.300000" cy="104.140000" r="0.600000" /> 
</g>
<g style="fill:#000000; fill-opacity:1.000000; stroke:none;">
<circle cx="114.300000" cy="91.640000" r="0.600000" /> 
</g>
<g style="fill:#000000; fill-opacity:1.000000; stroke:none;">
<circle cx="119.300000" cy="104.140000" r="0.600000" /> 
</g>
<g style="fill:#000000; fill-opacity:1.000000; stroke:none;">
<circle cx="119.300000" cy="91.640000" r="0.600000" /> 
</g>
<g style="fill:#000000; fill-opacity:1.000000; stroke:none;">
<circle cx="179.070000" cy="88.265000" r="0.400000" /> 
</g>
<g style="fill:#000000; fill-opacity:1.000000; stroke:none;">
<circle cx="179.070000" cy="80.645000" r="0.400000" /> 
</g>
<g style="fill:#000000; fill-opacity:1.000000; stroke:none;">
<circle cx="210.820000" cy="104.140000" r="0.600000" /> 
</g>
<g style="fill:#000000; fill-opacity:1.000000; stroke:none;">
<circle cx="210.820000" cy="91.640000" r="0.600000" /> 
</g>
<g style="fill:#000000; fill-opacity:1.000000; stroke:none;">
<circle cx="215.820000" cy="104.140000" r="0.600000" /> 
</g>
<g style="fill:#000000; fill-opacity:1.000000; stroke:none;">
<circle cx="215.820000" cy="91.640000" r="0.600000" /> 
</g>
<g style="fill:#000000; fill-opacity:1.000000; stroke:none;">
<circle cx="101.600000" cy="116.840000" r="0.600000" /> 
</g>
<g style="fill:#000000; fill-opacity:1.000000; stroke:none;">
<circle cx="101.600000" cy="104.340000" r="0.600000" /> 
</g>
<g style="fill:#000000; fill-opacity:1.000000; stroke:none;">
<circle cx="106.600000" cy="116.840000" r="0.600000" /> 
</g>
<g style="fill:#000000; fill-opacity:1.000000; stroke:none;">
<circle cx="106.600000" cy="104.340000" r="0.600000" /> 
</g>
<g style="fill:#000000; fill-opacity:1.000000; stroke:none;">
<circle cx="212.675000" cy="110.388400" r="1.100000" /> 
</g>
<g style="fill:#000000; fill-opacity:1.000000; stroke:none;">
<circle cx="132.080000" cy="114.975000" r="0.400000" /> 
</g>
<g style="fill:#000000; fill-opacity:1.000000; stroke:none;">
<circle cx="132.080000" cy="119.975000" r="0.400000" /> 
</g>
<g style="fill:#000000; fill-opacity:1.000000; stroke:none;">
<circle cx="92.125000" cy="110.388400" r="1.100000" /> 
</g>
<g style="fill:#000000; fill-opacity:1.000000; stroke:none;">
<circle cx="188.291000" cy="110.388400" r="1.100000" /> 
</g>
<g style="fill:#000000; fill-opacity:1.000000; stroke:none;">
<circle cx="200.660000" cy="74.295000" r="0.350000" /> 
</g>
<g style="fill:#000000; fill-opacity:1.000000; stroke:none;">
<circle cx="208.280000" cy="74.295000" r="0.350000" /> 
</g>
<g style="fill:#000000; fill-opacity:1.000000; stroke:none;">
<circle cx="116.509000" cy="110.388400" r="1.100000" /> 
</g>
<g style="fill:#000000; fill-opacity:1.000000; stroke:none;">
<circle cx="188.291000" cy="86.004400" r="1.100000" /> 
</g>
<g style="fill:#000000; fill-opacity:1.000000; stroke:none;">
<circle cx="198.120000" cy="91.440000" r="0.600000" /> 
</g>
<g style="fill:#000000; fill-opacity:1.000000; stroke:none;">
<circle cx="198.120000" cy="78.940000" r="0.600000" /> 
</g>
<g style="fill:#000000; fill-opacity:1.000000; stroke:none;">
<circle cx="203.120000" cy="91.440000" r="0.600000" /> 
</g>
<g style="fill:#000000; fill-opacity:1.000000; stroke:none;">
<circle cx="203.120000" cy="78.940000" r="0.600000" /> 
</g>
<g style="fill:#000000; fill-opacity:1.000000; stroke:none;">
<circle cx="125.660000" cy="105.301051" r="0.510000" /> 
</g>
<g style="fill:#000000; fill-opacity:1.000000; stroke:none;">
<circle cx="179.000000" cy="97.681051" r="0.510000" /> 
</g>
<g style="fill:#000000; fill-opacity:1.000000; stroke:none;">
<circle cx="125.660000" cy="102.761051" r="0.510000" /> 
</g>
<g style="fill:#000000; fill-opacity:1.000000; stroke:none;">
<circle cx="125.660000" cy="100.221051" r="0.510000" /> 
</g>
<g style="fill:#000000; fill-opacity:1.000000; stroke:none;">
<circle cx="125.660000" cy="92.601051" r="0.510000" /> 
</g>
<g style="fill:#000000; fill-opacity:1.000000; stroke:none;">
<circle cx="179.000000" cy="92.601051" r="0.510000" /> 
</g>
<g style="fill:#000000; fill-opacity:1.000000; stroke:none;">
<circle cx="125.660000" cy="97.681051" r="0.510000" /> 
</g>
<g style="fill:#000000; fill-opacity:1.000000; stroke:none;">
<circle cx="125.660000" cy="95.141051" r="0.510000" /> 
</g>
<g style="fill:#000000; fill-opacity:1.000000; stroke:none;">
<circle cx="125.660000" cy="87.521051" r="0.510000" /> 
</g>
<g style="fill:#000000; fill-opacity:1.000000; stroke:none;">
<circle cx="125.660000" cy="90.061051" r="0.510000" /> 
</g>
<g style="fill:#000000; fill-opacity:1.000000; stroke:none;">
<circle cx="179.000000" cy="95.141051" r="0.510000" /> 
</g>
<g style="fill:#000000; fill-opacity:1.000000; stroke:none;">
<circle cx="179.000000" cy="100.221051" r="0.510000" /> 
</g>
<g style="fill:#000000; fill-opacity:1.000000; stroke:none;">
<circle cx="127.000000" cy="120.015000" r="0.350000" /> 
</g>
<g style="fill:#000000; fill-opacity:1.000000; stroke:none;">
<circle cx="127.000000" cy="112.395000" r="0.350000" /> 
</g>
<g style="fill:#000000; fill-opacity:1.000000; stroke:none;">
<circle cx="198.120000" cy="116.790000" r="0.600000" /> 
</g>
<g style="fill:#000000; fill-opacity:1.000000; stroke:none;">
<circle cx="198.120000" cy="104.290000" r="0.600000" /> 
</g>
<g style="fill:#000000; fill-opacity:1.000000; stroke:none;">
<circle cx="203.120000" cy="116.790000" r="0.600000" /> 
</g>
<g style="fill:#000000; fill-opacity:1.000000; stroke:none;">
<circle cx="203.120000" cy="104.290000" r="0.600000" /> 
</g>
<g style="fill:#000000; fill-opacity:1.000000; stroke:none;">
<circle cx="212.675000" cy="86.004400" r="1.100000" /> 
</g>
<g style="fill:#000000; fill-opacity:1.000000; stroke:none;">
<circle cx="92.125000" cy="86.004400" r="1.100000" /> 
</g>
<g style="fill:#000000; fill-opacity:1.000000; stroke:none;">
<circle cx="101.600000" cy="91.440000" r="0.600000" /> 
</g>
<g style="fill:#000000; fill-opacity:1.000000; stroke:none;">
<circle cx="101.600000" cy="78.940000" r="0.600000" /> 
</g>
<g style="fill:#000000; fill-opacity:1.000000; stroke:none;">
<circle cx="106.600000" cy="91.440000" r="0.600000" /> 
</g>
<g style="fill:#000000; fill-opacity:1.000000; stroke:none;">
<circle cx="106.600000" cy="78.940000" r="0.600000" /> 
</g>
<g style="fill:#000000; fill-opacity:1.000000; stroke:none;">
<circle cx="88.900000" cy="104.140000" r="0.600000" /> 
</g>
<g style="fill:#000000; fill-opacity:1.000000; stroke:none;">
<circle cx="88.900000" cy="91.640000" r="0.600000" /> 
</g>
<g style="fill:#000000; fill-opacity:1.000000; stroke:none;">
<circle cx="93.900000" cy="104.140000" r="0.600000" /> 
</g>
<g style="fill:#000000; fill-opacity:1.000000; stroke:none;">
<circle cx="93.900000" cy="91.640000" r="0.600000" /> 
</g>
<g style="fill:#000000; fill-opacity:1.000000; stroke:none;">
<circle cx="116.509000" cy="86.004400" r="1.100000" /> 
</g>
<g style="fill:#000000; fill-opacity:1.000000; stroke:none;">
<circle cx="129.540000" cy="120.015000" r="0.350000" /> 
</g>
<g style="fill:#000000; fill-opacity:1.000000; stroke:none;">
<circle cx="129.540000" cy="112.395000" r="0.350000" /> 
</g>
<g style="fill:#000000; fill-opacity:1.000000; stroke:none;">
<circle cx="89.744800" cy="74.269600" r="0.444500" /> 
</g>
<g style="fill:#000000; fill-opacity:1.000000; stroke:none;">
<circle cx="92.284800" cy="74.269600" r="0.444500" /> 
</g>
<g style="fill:#000000; fill-opacity:1.000000; stroke:none;">
<circle cx="179.070000" cy="77.470000" r="0.400000" /> 
</g>
<g style="fill:#000000; fill-opacity:1.000000; stroke:none;">
<circle cx="179.070000" cy="72.470000" r="0.400000" /> 
</g>
<g style="fill:#000000; fill-opacity:1.000000; stroke:none;">
<circle cx="182.118000" cy="63.500000" r="0.400000" /> 
</g>
<g style="fill:#000000; fill-opacity:1.000000; stroke:none;">
<circle cx="184.658000" cy="63.500000" r="0.400000" /> 
</g>
<g style="fill:#000000; fill-opacity:1.000000; stroke:none;">
<circle cx="187.198000" cy="63.500000" r="0.400000" /> 
</g>
<g style="fill:#000000; fill-opacity:1.000000; stroke:none;">
<circle cx="212.090000" cy="74.295000" r="0.444500" /> 
</g>
<g style="fill:#000000; fill-opacity:1.000000; stroke:none;">
<circle cx="214.630000" cy="74.295000" r="0.444500" /> 
</g>
<g style="fill:#000000; fill-opacity:1.000000; stroke:none;">
<circle cx="185.420000" cy="104.090000" r="0.600000" /> 
</g>
<g style="fill:#000000; fill-opacity:1.000000; stroke:none;">
<circle cx="185.420000" cy="91.590000" r="0.600000" /> 
</g>
<g style="fill:#000000; fill-opacity:1.000000; stroke:none;">
<circle cx="190.420000" cy="104.090000" r="0.600000" /> 
</g>
<g style="fill:#000000; fill-opacity:1.000000; stroke:none;">
<circle cx="190.420000" cy="91.590000" r="0.600000" /> 
</g>
<g style="fill:#000000; fill-opacity:1.000000; stroke:none;">
<circle cx="104.140000" cy="74.295000" r="0.350000" /> 
</g>
<g style="fill:#000000; fill-opacity:1.000000; stroke:none;">
<circle cx="96.520000" cy="74.295000" r="0.350000" /> 
</g>
<g style="fill:#000000; fill-opacity:1.000000; stroke:none;">
<circle cx="121.793000" cy="72.081000" r="5.449999" /> 
</g>
<g style="fill:#000000; fill-opacity:1.000000; stroke:none;">
<circle cx="115.650000" cy="65.234000" r="1.499999" /> 
</g>
<g style="fill:#000000; fill-opacity:1.000000; stroke:none;">
<circle cx="115.650000" cy="78.928000" r="1.499999" /> 
</g>
<g style="fill:#000000; fill-opacity:1.000000; stroke:none;">
<circle cx="130.495000" cy="64.474000" r="0.510000" /> 
</g>
<g style="fill:#000000; fill-opacity:1.000000; stroke:none;">
<circle cx="130.495000" cy="67.014000" r="0.510000" /> 
</g>
<g style="fill:#000000; fill-opacity:1.000000; stroke:none;">
<circle cx="130.495000" cy="69.554000" r="0.510000" /> 
</g>
<g style="fill:#000000; fill-opacity:1.000000; stroke:none;">
<circle cx="130.495000" cy="72.094000" r="0.510000" /> 
</g>
<g style="fill:#000000; fill-opacity:1.000000; stroke:none;">
<circle cx="130.495000" cy="74.634000" r="0.510000" /> 
</g>
<g style="fill:#000000; fill-opacity:1.000000; stroke:none;">
<circle cx="130.495000" cy="77.174000" r="0.510000" /> 
</g>
<g style="fill:#000000; fill-opacity:1.000000; stroke:none;">
<circle cx="130.495000" cy="79.714000" r="0.510000" /> 
</g>
<g style="fill:#000000; fill-opacity:1.000000; stroke:none;">
<circle cx="187.584000" cy="72.390000" r="0.500000" /> 
</g>
<g style="fill:#000000; fill-opacity:1.000000; stroke:none;">
<circle cx="185.044000" cy="72.390000" r="0.500000" /> 
</g>
<g style="fill:#000000; fill-opacity:1.000000; stroke:none;">
<circle cx="187.584000" cy="74.930000" r="0.500000" /> 
</g>
<g style="fill:#000000; fill-opacity:1.000000; stroke:none;">
<circle cx="185.044000" cy="74.930000" r="0.500000" /> 
</g>
<g style="fill:#000000; fill-opacity:1.000000; stroke:none;">
<circle cx="187.584000" cy="77.470000" r="0.500000" /> 
</g>
<g style="fill:#000000; fill-opacity:1.000000; stroke:none;">
<circle cx="185.044000" cy="77.470000" r="0.500000" /> 
</g>
<g style="fill:#000000; fill-opacity:1.000000; stroke:none;">
<circle cx="150.000000" cy="118.000000" r="0.510000" /> 
</g>
<g style="fill:#000000; fill-opacity:1.000000; stroke:none;">
<circle cx="150.000000" cy="68.140000" r="0.510000" /> 
</g>
<g style="fill:#000000; fill-opacity:1.000000; stroke:none;">
<circle cx="139.200000" cy="68.140000" r="0.510000" /> 
</g>
<g style="fill:#000000; fill-opacity:1.000000; stroke:none;">
<circle cx="139.200000" cy="118.000000" r="0.510000" /> 
</g>
<g style="fill:#000000; fill-opacity:1.000000; stroke:none;">
<circle cx="176.022000" cy="62.230000" r="0.510000" /> 
</g>
<g style="fill:#000000; fill-opacity:1.000000; stroke:none;">
<circle cx="176.022000" cy="64.770000" r="0.510000" /> 
</g>
<g style="fill:#000000; fill-opacity:1.000000; stroke:none;">
<circle cx="176.022000" cy="67.310000" r="0.510000" /> 
</g>
<g style="fill:#000000; fill-opacity:1.000000; stroke:none;">
<circle cx="176.022000" cy="69.850000" r="0.510000" /> 
</g>
<g style="fill:#000000; fill-opacity:1.000000; stroke:none;">
<circle cx="176.022000" cy="72.390000" r="0.510000" /> 
</g>
<g style="fill:#000000; fill-opacity:1.000000; stroke:none;">
<circle cx="176.022000" cy="74.930000" r="0.510000" /> 
</g>
<g style="fill:#000000; fill-opacity:1.000000; stroke:none;">
<circle cx="176.022000" cy="77.470000" r="0.510000" /> 
</g>
<g style="fill:#000000; fill-opacity:1.000000; stroke:none;">
<circle cx="176.022000" cy="80.010000" r="0.510000" /> 
</g>
<g style="fill:#000000; fill-opacity:1.000000; stroke:none;">
<circle cx="176.022000" cy="82.550000" r="0.510000" /> 
</g>
<g style="fill:#000000; fill-opacity:1.000000; stroke:none;">
<circle cx="176.022000" cy="85.090000" r="0.510000" /> 
</g>
<g style="fill:#000000; fill-opacity:1.000000; stroke:none;">
<circle cx="176.022000" cy="87.630000" r="0.510000" /> 
</g>
<g style="fill:#000000; fill-opacity:1.000000; stroke:none;">
<circle cx="176.022000" cy="90.170000" r="0.510000" /> 
</g>
<g style="fill:#000000; fill-opacity:1.000000; stroke:none;">
<circle cx="176.022000" cy="92.710000" r="0.510000" /> 
</g>
<g style="fill:#000000; fill-opacity:1.000000; stroke:none;">
<circle cx="176.022000" cy="95.250000" r="0.510000" /> 
</g>
<g style="fill:#000000; fill-opacity:1.000000; stroke:none;">
<circle cx="176.022000" cy="97.790000" r="0.510000" /> 
</g>
<g style="fill:#000000; fill-opacity:1.000000; stroke:none;">
<circle cx="176.022000" cy="100.330000" r="0.510000" /> 
</g>
<g style="fill:#000000; fill-opacity:1.000000; stroke:none;">
<circle cx="176.022000" cy="102.870000" r="0.510000" /> 
</g>
<g style="fill:#000000; fill-opacity:1.000000; stroke:none;">
<circle cx="176.022000" cy="105.410000" r="0.510000" /> 
</g>
<g style="fill:#000000; fill-opacity:1.000000; stroke:none;">
<circle cx="176.022000" cy="107.950000" r="0.510000" /> 
</g>
<g style="fill:#000000; fill-opacity:1.000000; stroke:none;">
<circle cx="176.022000" cy="110.490000" r="0.510000" /> 
</g>
<g style="fill:#000000; fill-opacity:1.000000; stroke:none;">
<circle cx="158.242000" cy="110.490000" r="0.510000" /> 
</g>
<g style="fill:#000000; fill-opacity:1.000000; stroke:none;">
<circle cx="158.242000" cy="107.950000" r="0.510000" /> 
</g>
<g style="fill:#000000; fill-opacity:1.000000; stroke:none;">
<circle cx="158.242000" cy="105.410000" r="0.510000" /> 
</g>
<g style="fill:#000000; fill-opacity:1.000000; stroke:none;">
<circle cx="158.242000" cy="102.870000" r="0.510000" /> 
</g>
<g style="fill:#000000; fill-opacity:1.000000; stroke:none;">
<circle cx="158.242000" cy="100.330000" r="0.510000" /> 
</g>
<g style="fill:#000000; fill-opacity:1.000000; stroke:none;">
<circle cx="158.242000" cy="97.790000" r="0.510000" /> 
</g>
<g style="fill:#000000; fill-opacity:1.000000; stroke:none;">
<circle cx="158.242000" cy="95.250000" r="0.510000" /> 
</g>
<g style="fill:#000000; fill-opacity:1.000000; stroke:none;">
<circle cx="158.242000" cy="92.710000" r="0.510000" /> 
</g>
<g style="fill:#000000; fill-opacity:1.000000; stroke:none;">
<circle cx="158.242000" cy="90.170000" r="0.510000" /> 
</g>
<g style="fill:#000000; fill-opacity:1.000000; stroke:none;">
<circle cx="158.242000" cy="87.630000" r="0.510000" /> 
</g>
<g style="fill:#000000; fill-opacity:1.000000; stroke:none;">
<circle cx="158.242000" cy="85.090000" r="0.510000" /> 
</g>
<g style="fill:#000000; fill-opacity:1.000000; stroke:none;">
<circle cx="158.242000" cy="82.550000" r="0.510000" /> 
</g>
<g style="fill:#000000; fill-opacity:1.000000; stroke:none;">
<circle cx="158.242000" cy="80.010000" r="0.510000" /> 
</g>
<g style="fill:#000000; fill-opacity:1.000000; stroke:none;">
<circle cx="158.242000" cy="77.470000" r="0.510000" /> 
</g>
<g style="fill:#000000; fill-opacity:1.000000; stroke:none;">
<circle cx="158.242000" cy="74.930000" r="0.510000" /> 
</g>
<g style="fill:#000000; fill-opacity:1.000000; stroke:none;">
<circle cx="158.242000" cy="72.390000" r="0.510000" /> 
</g>
<g style="fill:#000000; fill-opacity:1.000000; stroke:none;">
<circle cx="158.242000" cy="69.850000" r="0.510000" /> 
</g>
<g style="fill:#000000; fill-opacity:1.000000; stroke:none;">
<circle cx="158.242000" cy="67.310000" r="0.510000" /> 
</g>
<g style="fill:#000000; fill-opacity:1.000000; stroke:none;">
<circle cx="158.242000" cy="64.770000" r="0.510000" /> 
</g>
<g style="fill:#000000; fill-opacity:1.000000; stroke:none;">
<circle cx="158.242000" cy="62.230000" r="0.510000" /> 
</g> 
</svg>
